<svg width="65" height="62" viewBox="0 0 65 62" fill="none" xmlns="http://www.w3.org/2000/svg">
<path d="M14.125 23.25V58.125H2.5V23.25H14.125ZM60.625 19.375C61.6519 19.375 62.64 19.7819 63.3646 20.5104C64.0931 21.235 64.5 22.2231 64.5 23.25V37.6766C64.5 38.378 64.3101 39.0677 63.9459 39.6722C62.3881 42.2685 57.8931 49.7627 55.1341 54.3624C53.7314 56.6951 51.2088 58.125 48.4885 58.125C42.7884 58.125 32.7444 58.125 25.75 58.125C23.6963 58.125 21.7239 57.3074 20.2707 55.8542C18.8176 54.4011 18 52.4287 18 50.375C18 41.6369 18 27.8884 18 22.0952C18 20.3321 18.6006 18.6271 19.6973 17.2515C23.7234 12.2217 33.5 0 33.5 0C35.639 0 37.375 1.736 37.375 3.875V19.375H60.625Z" fill="#00D188" fill-opacity="0.6"/>
</svg>
